<?xml version="1.0" encoding="UTF-8" standalone="no"?>
<svg
   xmlns:dc="http://purl.org/dc/elements/1.1/"
   xmlns:cc="http://creativecommons.org/ns#"
   xmlns:rdf="http://www.w3.org/1999/02/22-rdf-syntax-ns#"
   xmlns:svg="http://www.w3.org/2000/svg"
   xmlns="http://www.w3.org/2000/svg"
   xmlns:xlink="http://www.w3.org/1999/xlink"
   xmlns:sodipodi="http://sodipodi.sourceforge.net/DTD/sodipodi-0.dtd"
   xmlns:inkscape="http://www.inkscape.org/namespaces/inkscape"
   version="1.0"
   id="svg2"
   sodipodi:version="0.32"
   inkscape:version="1.0 (4035a4fb49, 2020-05-01)"
   sodipodi:docname="pythonchile_oficial.svg"
   width="63.225681pt"
   height="63.923931pt"
   inkscape:export-filename="/home/cmaureir/pythonchilev6.png"
   inkscape:export-xdpi="172.28999"
   inkscape:export-ydpi="172.28999">
  <metadata
     id="metadata371">
    <rdf:RDF>
      <cc:Work
         rdf:about="">
        <dc:format>image/svg+xml</dc:format>
        <dc:type
           rdf:resource="http://purl.org/dc/dcmitype/StillImage" />
        <dc:title></dc:title>
      </cc:Work>
    </rdf:RDF>
  </metadata>
  <sodipodi:namedview
     inkscape:window-height="1058"
     inkscape:window-width="1920"
     inkscape:pageshadow="2"
     inkscape:pageopacity="0.0"
     guidetolerance="10.0"
     gridtolerance="10.0"
     objecttolerance="10.0"
     borderopacity="1.0"
     bordercolor="#666666"
     pagecolor="#ffffff"
     id="base"
     inkscape:zoom="1.5175673"
     inkscape:cx="59.126282"
     inkscape:cy="21.631527"
     inkscape:window-x="0"
     inkscape:window-y="22"
     inkscape:current-layer="g1735-5"
     width="210mm"
     height="40mm"
     units="mm"
     inkscape:document-rotation="0"
     showgrid="false"
     fit-margin-top="0"
     fit-margin-left="0"
     fit-margin-right="0"
     fit-margin-bottom="0"
     inkscape:window-maximized="0" />
  <defs
     id="defs4">
    <linearGradient
       id="linearGradient4671">
      <stop
         id="stop1708"
         offset="0"
         style="stop-color:#ffd43b;stop-opacity:1;" />
      <stop
         id="stop1710"
         offset="1"
         style="stop-color:#ffe873;stop-opacity:1" />
    </linearGradient>
    <linearGradient
       id="linearGradient2795">
      <stop
         style="stop-color:#b8b8b8;stop-opacity:0.49803922;"
         offset="0"
         id="stop2797" />
      <stop
         style="stop-color:#7f7f7f;stop-opacity:0;"
         offset="1"
         id="stop2799" />
    </linearGradient>
    <linearGradient
       id="linearGradient2787">
      <stop
         style="stop-color:#7f7f7f;stop-opacity:0.5;"
         offset="0"
         id="stop2789" />
      <stop
         style="stop-color:#7f7f7f;stop-opacity:0;"
         offset="1"
         id="stop2791" />
    </linearGradient>
    <linearGradient
       id="linearGradient3676">
      <stop
         style="stop-color:#b2b2b2;stop-opacity:0.5;"
         offset="0"
         id="stop3678" />
      <stop
         style="stop-color:#b3b3b3;stop-opacity:0;"
         offset="1"
         id="stop3680" />
    </linearGradient>
    <linearGradient
       id="linearGradient3236">
      <stop
         style="stop-color:#f4f4f4;stop-opacity:1"
         offset="0"
         id="stop3244" />
      <stop
         style="stop-color:white;stop-opacity:1"
         offset="1"
         id="stop3240" />
    </linearGradient>
    <linearGradient
       id="linearGradient4671-3">
      <stop
         style="stop-color:#ffd43b;stop-opacity:1;"
         offset="0"
         id="stop4673" />
      <stop
         style="stop-color:#ffe873;stop-opacity:1"
         offset="1"
         id="stop4675" />
    </linearGradient>
    <linearGradient
       id="linearGradient4689">
      <stop
         style="stop-color:#5a9fd4;stop-opacity:1;"
         offset="0"
         id="stop4691" />
      <stop
         style="stop-color:#306998;stop-opacity:1;"
         offset="1"
         id="stop4693" />
    </linearGradient>
    <linearGradient
       x1="224.23996"
       y1="144.75717"
       x2="-65.308502"
       y2="144.75717"
       id="linearGradient2987"
       xlink:href="#linearGradient4671-3"
       gradientUnits="userSpaceOnUse"
       gradientTransform="translate(100.2702,99.61116)" />
    <linearGradient
       x1="172.94208"
       y1="77.475983"
       x2="26.670298"
       y2="76.313133"
       id="linearGradient2990"
       xlink:href="#linearGradient4689"
       gradientUnits="userSpaceOnUse"
       gradientTransform="translate(100.2702,99.61116)" />
    <linearGradient
       inkscape:collect="always"
       xlink:href="#linearGradient4689"
       id="linearGradient2587"
       gradientUnits="userSpaceOnUse"
       gradientTransform="translate(100.2702,99.61116)"
       x1="172.94208"
       y1="77.475983"
       x2="26.670298"
       y2="76.313133" />
    <linearGradient
       inkscape:collect="always"
       xlink:href="#linearGradient4671-3"
       id="linearGradient2589"
       gradientUnits="userSpaceOnUse"
       gradientTransform="translate(100.2702,99.61116)"
       x1="224.23996"
       y1="144.75717"
       x2="-65.308502"
       y2="144.75717" />
    <linearGradient
       inkscape:collect="always"
       xlink:href="#linearGradient4689"
       id="linearGradient2248"
       gradientUnits="userSpaceOnUse"
       gradientTransform="translate(100.2702,99.61116)"
       x1="172.94208"
       y1="77.475983"
       x2="26.670298"
       y2="76.313133" />
    <linearGradient
       inkscape:collect="always"
       xlink:href="#linearGradient4671-3"
       id="linearGradient2250"
       gradientUnits="userSpaceOnUse"
       gradientTransform="translate(100.2702,99.61116)"
       x1="224.23996"
       y1="144.75717"
       x2="-65.308502"
       y2="144.75717" />
    <linearGradient
       inkscape:collect="always"
       xlink:href="#linearGradient4671-3"
       id="linearGradient2255"
       gradientUnits="userSpaceOnUse"
       gradientTransform="matrix(0.562541,0,0,0.567972,-11.5974,-7.60954)"
       x1="224.23996"
       y1="144.75717"
       x2="-65.308502"
       y2="144.75717" />
    <linearGradient
       inkscape:collect="always"
       xlink:href="#linearGradient4689"
       id="linearGradient2258"
       gradientUnits="userSpaceOnUse"
       gradientTransform="matrix(0.562541,0,0,0.567972,-11.5974,-7.60954)"
       x1="172.94208"
       y1="76.176224"
       x2="26.670298"
       y2="76.313133" />
    <radialGradient
       inkscape:collect="always"
       xlink:href="#linearGradient2795"
       id="radialGradient2801"
       cx="61.518883"
       cy="132.28575"
       fx="61.518883"
       fy="132.28575"
       r="29.036913"
       gradientTransform="matrix(1,0,0,0.177966,0,108.7434)"
       gradientUnits="userSpaceOnUse" />
  </defs>
  <g
     transform="matrix(0.91584271,0,0,0.91584271,-8.2868552,-12.332563)"
     id="g1735-5">
    <g
       transform="matrix(1.4204455,0,0,1.4204455,-333.99202,-9.303614)"
       id="g3916">
      <path
         id="path1948-6"
         d="m 273.51698,16.030312 c -2.67206,0.01242 -5.2238,0.240304 -7.46908,0.637604 -6.6143,1.16853 -7.8152,3.614363 -7.8152,8.124897 v 5.957042 h 15.63041 v 1.985681 h -15.63041 -5.86595 c -4.54264,0 -8.52029,2.730384 -9.76445,7.924507 -1.43513,5.953671 -1.49879,9.668859 0,15.885448 1.11106,4.627388 3.76443,7.924505 8.30706,7.924506 h 5.37409 v -7.141164 c 0,-5.15907 4.46375,-9.709797 9.76445,-9.709798 h 15.61219 c 4.34588,0 7.81521,-3.578256 7.81521,-7.942724 V 24.792813 c 0,-4.235929 -3.57349,-7.417937 -7.81521,-8.124897 -2.68507,-0.446964 -5.47106,-0.650019 -8.14311,-0.637604 z m -8.45281,4.791139 c 1.61451,0 2.93298,1.34 2.93298,2.98763 -10e-6,1.641789 -1.31847,2.969413 -2.93298,2.969413 -1.6203,-10e-7 -2.93298,-1.327625 -2.93298,-2.969413 0,-1.647629 1.31268,-2.98763 2.93298,-2.98763 z"
         style="fill:#0057a8;fill-opacity:1;stroke-width:0.582952"
         inkscape:export-xdpi="172.28999"
         inkscape:export-ydpi="172.28999" />
      <path
         id="path1950-2"
         d="m 291.42454,32.735536 v 6.940775 c 0,5.381089 -4.56212,9.910187 -9.76445,9.910188 H 266.0479 c -4.27644,0 -7.8152,3.660055 -7.8152,7.942723 v 14.883497 c 0,4.235929 3.68343,6.727455 7.8152,7.942724 4.94771,1.454821 9.6923,1.717745 15.61219,0 3.93502,-1.139316 7.81521,-3.432195 7.81521,-7.942724 v -5.957041 h -15.61219 v -1.985681 h 15.61219 7.8152 c 4.54263,0 6.2354,-3.168583 7.8152,-7.924506 1.63187,-4.896149 1.56244,-9.60459 0,-15.885448 -1.12264,-4.522217 -3.26679,-7.924507 -7.8152,-7.924507 z m -8.78072,37.691508 c 1.6203,0 2.93298,1.327621 2.93298,2.969407 0,1.647627 -1.31268,2.98763 -2.93298,2.98763 -1.61451,0 -2.93297,-1.340003 -2.93297,-2.98763 0,-1.641786 1.31845,-2.969407 2.93297,-2.969407 z"
         style="fill:#e12d1b;fill-opacity:1;stroke-width:0.582952"
         inkscape:export-xdpi="172.28999"
         inkscape:export-ydpi="172.28999" />
    </g>
  </g>
</svg>
